<mxfile host="app.diagrams.net" modified="2021-03-18T13:02:24.649Z" agent="5.0 (X11; Linux x86_64) AppleWebKit/537.36 (KHTML, like Gecko) Chrome/87.0.4280.141 Safari/537.36" etag="CYZtab4nfaH67CHmj-DJ" version="14.4.9" type="github">
  <diagram id="Y9szXQ_khthJUK_e-TBU" name="Page-1">
    <mxGraphModel dx="1422" dy="806" grid="1" gridSize="10" guides="1" tooltips="1" connect="1" arrows="1" fold="1" page="1" pageScale="1" pageWidth="2000" pageHeight="2000" math="0" shadow="0">
      <root>
        <mxCell id="0" />
        <mxCell id="1" parent="0" />
        <mxCell id="C6XxgDwA5r2vYgIf8eIn-3" value="" style="edgeStyle=orthogonalEdgeStyle;rounded=0;orthogonalLoop=1;jettySize=auto;html=1;" edge="1" parent="1" source="C6XxgDwA5r2vYgIf8eIn-1" target="C6XxgDwA5r2vYgIf8eIn-2">
          <mxGeometry relative="1" as="geometry" />
        </mxCell>
        <mxCell id="C6XxgDwA5r2vYgIf8eIn-1" value="/Cluck/?" style="rounded=0;whiteSpace=wrap;html=1;" vertex="1" parent="1">
          <mxGeometry x="80" y="40" width="120" height="80" as="geometry" />
        </mxCell>
        <mxCell id="C6XxgDwA5r2vYgIf8eIn-7" value="ja" style="edgeStyle=orthogonalEdgeStyle;rounded=0;orthogonalLoop=1;jettySize=auto;html=1;" edge="1" parent="1" source="C6XxgDwA5r2vYgIf8eIn-2" target="C6XxgDwA5r2vYgIf8eIn-6">
          <mxGeometry relative="1" as="geometry" />
        </mxCell>
        <mxCell id="C6XxgDwA5r2vYgIf8eIn-9" value="nej" style="edgeStyle=orthogonalEdgeStyle;rounded=0;orthogonalLoop=1;jettySize=auto;html=1;dashed=1;" edge="1" parent="1" source="C6XxgDwA5r2vYgIf8eIn-2" target="C6XxgDwA5r2vYgIf8eIn-8">
          <mxGeometry relative="1" as="geometry" />
        </mxCell>
        <mxCell id="C6XxgDwA5r2vYgIf8eIn-2" value="Kackel med&lt;br&gt;URLen&lt;br&gt;existerar?" style="rhombus;whiteSpace=wrap;html=1;rounded=0;" vertex="1" parent="1">
          <mxGeometry x="70" y="180" width="140" height="80" as="geometry" />
        </mxCell>
        <mxCell id="C6XxgDwA5r2vYgIf8eIn-11" value="ja" style="edgeStyle=orthogonalEdgeStyle;rounded=0;orthogonalLoop=1;jettySize=auto;html=1;" edge="1" parent="1" source="C6XxgDwA5r2vYgIf8eIn-6" target="C6XxgDwA5r2vYgIf8eIn-10">
          <mxGeometry relative="1" as="geometry" />
        </mxCell>
        <mxCell id="C6XxgDwA5r2vYgIf8eIn-17" value="" style="edgeStyle=orthogonalEdgeStyle;rounded=0;orthogonalLoop=1;jettySize=auto;html=1;" edge="1" parent="1" source="C6XxgDwA5r2vYgIf8eIn-6" target="C6XxgDwA5r2vYgIf8eIn-16">
          <mxGeometry relative="1" as="geometry" />
        </mxCell>
        <mxCell id="C6XxgDwA5r2vYgIf8eIn-6" value="POST?" style="rhombus;whiteSpace=wrap;html=1;rounded=0;" vertex="1" parent="1">
          <mxGeometry x="70" y="320" width="140" height="80" as="geometry" />
        </mxCell>
        <mxCell id="C6XxgDwA5r2vYgIf8eIn-8" value="/" style="whiteSpace=wrap;html=1;rounded=0;" vertex="1" parent="1">
          <mxGeometry x="280" y="180" width="120" height="80" as="geometry" />
        </mxCell>
        <mxCell id="C6XxgDwA5r2vYgIf8eIn-13" value="ja" style="edgeStyle=orthogonalEdgeStyle;rounded=0;orthogonalLoop=1;jettySize=auto;html=1;" edge="1" parent="1" source="C6XxgDwA5r2vYgIf8eIn-10" target="C6XxgDwA5r2vYgIf8eIn-12">
          <mxGeometry relative="1" as="geometry" />
        </mxCell>
        <mxCell id="C6XxgDwA5r2vYgIf8eIn-18" value="nej" style="edgeStyle=orthogonalEdgeStyle;rounded=0;orthogonalLoop=1;jettySize=auto;html=1;entryX=1;entryY=0.5;entryDx=0;entryDy=0;" edge="1" parent="1" source="C6XxgDwA5r2vYgIf8eIn-10" target="C6XxgDwA5r2vYgIf8eIn-16">
          <mxGeometry relative="1" as="geometry">
            <Array as="points">
              <mxPoint x="340" y="500" />
            </Array>
          </mxGeometry>
        </mxCell>
        <mxCell id="C6XxgDwA5r2vYgIf8eIn-10" value="svars formet&lt;br&gt;validerar?" style="rhombus;whiteSpace=wrap;html=1;rounded=0;" vertex="1" parent="1">
          <mxGeometry x="270" y="320" width="140" height="80" as="geometry" />
        </mxCell>
        <mxCell id="C6XxgDwA5r2vYgIf8eIn-15" value="" style="edgeStyle=orthogonalEdgeStyle;rounded=0;orthogonalLoop=1;jettySize=auto;html=1;dashed=1;" edge="1" parent="1" source="C6XxgDwA5r2vYgIf8eIn-12" target="C6XxgDwA5r2vYgIf8eIn-14">
          <mxGeometry relative="1" as="geometry" />
        </mxCell>
        <mxCell id="C6XxgDwA5r2vYgIf8eIn-12" value="Skapa nytt inlägg" style="whiteSpace=wrap;html=1;rounded=0;" vertex="1" parent="1">
          <mxGeometry x="480" y="320" width="120" height="80" as="geometry" />
        </mxCell>
        <mxCell id="C6XxgDwA5r2vYgIf8eIn-14" value="/Profiles/Profile/?" style="whiteSpace=wrap;html=1;rounded=0;" vertex="1" parent="1">
          <mxGeometry x="480" y="180" width="120" height="80" as="geometry" />
        </mxCell>
        <mxCell id="C6XxgDwA5r2vYgIf8eIn-20" value="" style="edgeStyle=orthogonalEdgeStyle;rounded=0;orthogonalLoop=1;jettySize=auto;html=1;" edge="1" parent="1" source="C6XxgDwA5r2vYgIf8eIn-16" target="C6XxgDwA5r2vYgIf8eIn-19">
          <mxGeometry relative="1" as="geometry" />
        </mxCell>
        <mxCell id="C6XxgDwA5r2vYgIf8eIn-16" value="Skriv ut&lt;br&gt;eventuellt&lt;br&gt;svar till&lt;br&gt;inlägget" style="whiteSpace=wrap;html=1;rounded=0;" vertex="1" parent="1">
          <mxGeometry x="80" y="460" width="120" height="80" as="geometry" />
        </mxCell>
        <mxCell id="C6XxgDwA5r2vYgIf8eIn-26" value="" style="edgeStyle=orthogonalEdgeStyle;rounded=0;orthogonalLoop=1;jettySize=auto;html=1;" edge="1" parent="1" source="C6XxgDwA5r2vYgIf8eIn-19" target="C6XxgDwA5r2vYgIf8eIn-25">
          <mxGeometry relative="1" as="geometry" />
        </mxCell>
        <mxCell id="C6XxgDwA5r2vYgIf8eIn-19" value="Skriv ut inlägget" style="whiteSpace=wrap;html=1;rounded=0;" vertex="1" parent="1">
          <mxGeometry x="80" y="600" width="120" height="80" as="geometry" />
        </mxCell>
        <mxCell id="C6XxgDwA5r2vYgIf8eIn-28" value="ja" style="edgeStyle=orthogonalEdgeStyle;rounded=0;orthogonalLoop=1;jettySize=auto;html=1;" edge="1" parent="1" source="C6XxgDwA5r2vYgIf8eIn-25" target="C6XxgDwA5r2vYgIf8eIn-27">
          <mxGeometry relative="1" as="geometry" />
        </mxCell>
        <mxCell id="C6XxgDwA5r2vYgIf8eIn-30" value="nej" style="edgeStyle=orthogonalEdgeStyle;rounded=0;orthogonalLoop=1;jettySize=auto;html=1;" edge="1" parent="1" source="C6XxgDwA5r2vYgIf8eIn-25" target="C6XxgDwA5r2vYgIf8eIn-29">
          <mxGeometry relative="1" as="geometry" />
        </mxCell>
        <mxCell id="C6XxgDwA5r2vYgIf8eIn-25" value="Skrev&lt;br&gt;&amp;nbsp;nuvarande&lt;br&gt;användaren&lt;br&gt;inlägget?" style="rhombus;whiteSpace=wrap;html=1;rounded=0;" vertex="1" parent="1">
          <mxGeometry x="270" y="600" width="140" height="80" as="geometry" />
        </mxCell>
        <mxCell id="C6XxgDwA5r2vYgIf8eIn-31" style="edgeStyle=orthogonalEdgeStyle;rounded=0;orthogonalLoop=1;jettySize=auto;html=1;" edge="1" parent="1" source="C6XxgDwA5r2vYgIf8eIn-27" target="C6XxgDwA5r2vYgIf8eIn-29">
          <mxGeometry relative="1" as="geometry">
            <Array as="points">
              <mxPoint x="540" y="780" />
            </Array>
          </mxGeometry>
        </mxCell>
        <mxCell id="C6XxgDwA5r2vYgIf8eIn-35" value="" style="edgeStyle=orthogonalEdgeStyle;rounded=0;orthogonalLoop=1;jettySize=auto;html=1;" edge="1" parent="1" source="C6XxgDwA5r2vYgIf8eIn-27" target="C6XxgDwA5r2vYgIf8eIn-34">
          <mxGeometry relative="1" as="geometry" />
        </mxCell>
        <mxCell id="C6XxgDwA5r2vYgIf8eIn-37" value="" style="edgeStyle=orthogonalEdgeStyle;rounded=0;orthogonalLoop=1;jettySize=auto;html=1;" edge="1" parent="1" source="C6XxgDwA5r2vYgIf8eIn-27" target="C6XxgDwA5r2vYgIf8eIn-36">
          <mxGeometry relative="1" as="geometry" />
        </mxCell>
        <mxCell id="C6XxgDwA5r2vYgIf8eIn-27" value="lägg till knappar&amp;nbsp;&lt;br&gt;för att radera och&lt;br&gt;redigera inlägget" style="whiteSpace=wrap;html=1;rounded=0;" vertex="1" parent="1">
          <mxGeometry x="480" y="600" width="120" height="80" as="geometry" />
        </mxCell>
        <mxCell id="C6XxgDwA5r2vYgIf8eIn-33" value="" style="edgeStyle=orthogonalEdgeStyle;rounded=0;orthogonalLoop=1;jettySize=auto;html=1;" edge="1" parent="1" source="C6XxgDwA5r2vYgIf8eIn-29" target="C6XxgDwA5r2vYgIf8eIn-32">
          <mxGeometry relative="1" as="geometry" />
        </mxCell>
        <mxCell id="C6XxgDwA5r2vYgIf8eIn-29" value="Är nuvarande&lt;br&gt;användaren &lt;br&gt;inloggad?" style="rhombus;whiteSpace=wrap;html=1;rounded=0;" vertex="1" parent="1">
          <mxGeometry x="270" y="740" width="140" height="80" as="geometry" />
        </mxCell>
        <mxCell id="C6XxgDwA5r2vYgIf8eIn-32" value="lägg till ett form&lt;br&gt;för att göra ett svar" style="whiteSpace=wrap;html=1;rounded=0;" vertex="1" parent="1">
          <mxGeometry x="80" y="740" width="120" height="80" as="geometry" />
        </mxCell>
        <mxCell id="C6XxgDwA5r2vYgIf8eIn-39" value="" style="edgeStyle=orthogonalEdgeStyle;rounded=0;orthogonalLoop=1;jettySize=auto;html=1;" edge="1" parent="1" source="C6XxgDwA5r2vYgIf8eIn-34" target="C6XxgDwA5r2vYgIf8eIn-38">
          <mxGeometry relative="1" as="geometry" />
        </mxCell>
        <mxCell id="C6XxgDwA5r2vYgIf8eIn-34" value="användaren&lt;br&gt;trycker på&lt;br&gt;radera" style="rhombus;whiteSpace=wrap;html=1;rounded=0;" vertex="1" parent="1">
          <mxGeometry x="470" y="460" width="140" height="80" as="geometry" />
        </mxCell>
        <mxCell id="C6XxgDwA5r2vYgIf8eIn-41" value="" style="edgeStyle=orthogonalEdgeStyle;rounded=0;orthogonalLoop=1;jettySize=auto;html=1;" edge="1" parent="1" source="C6XxgDwA5r2vYgIf8eIn-36" target="C6XxgDwA5r2vYgIf8eIn-40">
          <mxGeometry relative="1" as="geometry" />
        </mxCell>
        <mxCell id="C6XxgDwA5r2vYgIf8eIn-36" value="användaren&lt;br&gt;trycker på&lt;br&gt;redigera" style="rhombus;whiteSpace=wrap;html=1;rounded=0;" vertex="1" parent="1">
          <mxGeometry x="660" y="600" width="140" height="80" as="geometry" />
        </mxCell>
        <mxCell id="C6XxgDwA5r2vYgIf8eIn-38" value="/Cluck/Delete/?" style="whiteSpace=wrap;html=1;rounded=0;" vertex="1" parent="1">
          <mxGeometry x="680" y="460" width="120" height="80" as="geometry" />
        </mxCell>
        <mxCell id="C6XxgDwA5r2vYgIf8eIn-40" value="/Cluck/Edit/?" style="whiteSpace=wrap;html=1;rounded=0;" vertex="1" parent="1">
          <mxGeometry x="860" y="600" width="120" height="80" as="geometry" />
        </mxCell>
      </root>
    </mxGraphModel>
  </diagram>
</mxfile>
